<svg id="Слой_1" data-name="Слой 1" xmlns="http://www.w3.org/2000/svg" viewBox="0 0 776.3 219.3"><defs><style>.cls-1{fill:#cfd2d7;}</style></defs><path class="cls-1" d="M213.8,170.08c8.88-8.76,17.74-17.54,26.67-26.23,1.45-1.41,1.6-3,1.59-4.78,0-7.52-.07-15,0-22.56a6,6,0,0,0-2.2-4.91c-4.73-4.44-4.86-11-.61-15.37a10.36,10.36,0,0,1,15,0c4.53,4.54,4.39,11.06-.74,15.63-1.84,1.64-2.15,3.3-2.14,5.43,0,8-.09,16,.06,24a9.67,9.67,0,0,1-3.11,7.63c-11.24,11.14-22.32,22.46-33.54,33.62a8,8,0,0,0-2.66,6.28c.14,12,.1,24,0,36a7.48,7.48,0,0,0,2.3,5.94q15.06,14.81,29.84,29.89c2,2.07,3.23,2.33,5.26,0,3.17-3.59,6.64-6.93,10.12-10.23,1.63-1.56,1.71-2.63,0-4.27q-10.12-9.88-20-20c-1.49-1.53-3.24-1.8-5.12-2.19-6-1.26-9.83-6.72-8.75-12.3a10.62,10.62,0,0,1,12.55-8.38c6,1.22,9.34,6.67,7.92,13.11-.32,1.47-.74,2.69.54,3.94,6.93,6.82,13.81,13.7,20.66,20.51,1.8-.93,1.14-2.38,1.15-3.52.06-9.92-.09-19.84.1-29.75a8.91,8.91,0,0,0-3.06-7.11c-6-5.8-11.61-11.93-17.68-17.61-2.74-2.56-2.4-4,.12-6.4,6.91-6.58,13.51-13.49,20.34-20.16a7.66,7.66,0,0,0,2.64-6.3c-.19-3.83-.1-7.68,0-11.52s0-7.43-3.6-10.65c-4.23-3.75-3.11-10.73,1.24-14.51a10.57,10.57,0,0,1,14.37.51c4.1,4.06,4.54,10.71.27,14.62-2.59,2.37-3.06,4.77-3.1,7.92-.11,7,2.11,14.71-.87,20.78-2.89,5.87-9.08,10.15-13.9,15.05-7.37,7.5-7.4,7.47.14,15.06s7.53,7.57,15,.25c1.72-1.68,3.38-3.42,5.15-5a6.65,6.65,0,0,0,2.56-6.16,10.56,10.56,0,1,1,21.09-1.07c.23,6.29-4.23,11.13-10.64,11-2.89-.09-4.53,1.23-6.67,2.75-11.93,8.45-16.55,19.56-14.49,34.13,1,7.05,2,15.16-.53,21.34s-9.45,10.51-14.43,15.66c-.55.57-1,1.22-1.51,1.83-2.52,2.42-5,4.89-7.6,7.25a6.21,6.21,0,0,0-1.95,5.15c.09,3.2,0,6.4,0,9.59,0,4.09-.2,7.76,3.55,11.15,4,3.61,2.81,10.57-1.25,14.18a10.61,10.61,0,0,1-14.73-.53c-3.84-4-4.46-10.66-.29-14.25,3.26-2.8,2.86-5.86,3.37-9.28,1.48-9.94-2.38-16.9-9.67-23.65-15.35-14.21-29.87-29.33-44.67-44.13a7.06,7.06,0,0,0-6.24-2.44c-6.58.58-11.41-3.74-11.72-9.85a10.7,10.7,0,0,1,10.07-11.25c6.06-.31,10.84,4.13,11.06,10.65a6.68,6.68,0,0,0,2.19,5c2.78,2.76,5.41,5.69,8.1,8.54l1.23-.66c0-11,0-21.89,0-32.84,0-2.07-1.58-3-2.78-4.25-8.68-8.73-17.3-17.52-26.15-26.08a10.46,10.46,0,0,1-3.63-8.78c.25-4.65.55-9.08-3.82-13-3.65-3.25-2.38-11.15,1-14a11.78,11.78,0,0,1,15.28.84,10.81,10.81,0,0,1,0,14.78,11.22,11.22,0,0,0,.34,16.16l20.36,20.33C208.65,175.91,208.65,175.91,213.8,170.08Z" transform="translate(-164.1 -92.63)"/><path class="cls-1" d="M269,273.54a7.06,7.06,0,0,1,1.8-.44c11.58.48,15.08-10.87,23-15.72,1.35-.83.72-2.69.73-4.08,0-10.22.14-20.45-.06-30.67-.06-3.46.67-6.14,3.43-8.38,2.09-1.7,3.77-3.9,5.79-5.71a7.33,7.33,0,0,0,2.69-6.2,10.18,10.18,0,0,1,10.79-10.81,10.55,10.55,0,0,1,10.25,10.55,10.71,10.71,0,0,1-11.24,10.58c-4.81-.11-12.58,7.52-12.6,12.48,0,10.54-.13,21.09.05,31.63a8.59,8.59,0,0,1-3,7.1c-3.18,2.91-6.05,6.15-9.14,9.16s-6.29,5.9-5.51,11.3c.53,3.7-2.76,6.2-5.58,8.39-6.89,1.63-11.22.2-14.13-4.71C263.93,284,263.93,279.36,269,273.54Z" transform="translate(-164.1 -92.63)"/><path class="cls-1" d="M191.13,249.38c-1,2.34.51,3.93,2.2,5.55,3.11,3,6.13,6.07,9.16,9.14s5.53,5.88,10.76,5.58c5.4-.3,9.3,5.3,9,10.92a10.64,10.64,0,0,1-10.81,10c-5.61-.14-10.61-4.77-10.29-10.48.19-3.37-1-5.31-3.22-7.34-3.14-2.95-6.12-6.08-9.16-9.13-2.88-2.9-5.37-5.67-10.35-5.66-5.3,0-9.05-6.09-8.29-11.49a10.85,10.85,0,0,1,11.12-9.21C187.23,237.7,191.39,242.67,191.13,249.38Z" transform="translate(-164.1 -92.63)"/><path class="cls-1" d="M458.26,135.86c-.45,7.92-.9,16.75-.9,30.1v63.61c0,25.12-5,40.51-15.62,50-10.64,10-26,13.13-39.84,13.13-13.13,0-27.61-3.17-36.44-9.06l5-15.16c7.24,4.53,18.56,8.6,32.14,8.6,20.37,0,35.31-10.64,35.31-38.25V226.62h-.45C431.33,236.81,419.56,245,402.58,245,375.42,245,356,221.87,356,191.54c0-37.12,24.22-58.17,49.35-58.17,19,0,29.42,10,34.18,19h.45l.9-16.52Zm-20.59,43.23a28.2,28.2,0,0,0-1.14-9.05c-3.62-11.55-13.35-21-27.84-21-19,0-32.59,16.07-32.59,41.42,0,21.5,10.86,39.38,32.37,39.38,12.22,0,23.31-7.69,27.61-20.37a34.68,34.68,0,0,0,1.59-10.64Z" transform="translate(-164.1 -92.63)"/><path class="cls-1" d="M551.07,245.41l-1.59-13.81h-.68c-6.11,8.61-17.88,16.3-33.5,16.3-22.18,0-33.5-15.62-33.5-31.46,0-26.48,23.55-41,65.87-40.74v-2.27c0-9.05-2.49-25.35-24.9-25.35a54.61,54.61,0,0,0-28.52,8.15l-4.52-13.13c9-5.88,22.18-9.73,36-9.73,33.5,0,41.65,22.86,41.65,44.82v41c0,9.51.45,18.79,1.81,26.26Zm-3-55.91c-21.72-.45-46.4,3.4-46.4,24.67,0,12.91,8.61,19,18.79,19,14.26,0,23.31-9.06,26.48-18.34a20.71,20.71,0,0,0,1.13-6.33Z" transform="translate(-164.1 -92.63)"/><path class="cls-1" d="M599.51,165.51c0-11.32-.23-20.6-.91-29.65H616l.91,17.65h.68c6.11-10.41,16.29-20.14,34.4-20.14,14.94,0,26.26,9,31,21.95h.45a45.24,45.24,0,0,1,12.23-14.26c6.56-5,13.8-7.69,24.22-7.69,14.48,0,36,9.5,36,47.53v64.51H736.45v-62c0-21-7.7-33.72-23.77-33.72-11.31,0-20.14,8.37-23.54,18.1a33,33,0,0,0-1.58,10v67.68H668.09V179.77c0-17.43-7.69-30.1-22.86-30.1-12.45,0-21.5,10-24.67,19.91a27.55,27.55,0,0,0-1.59,9.74v66.09H599.51Z" transform="translate(-164.1 -92.63)"/><path class="cls-1" d="M810.47,105.07c.23,6.79-4.75,12.23-12.67,12.23a11.85,11.85,0,0,1-12-12.23,12.14,12.14,0,0,1,12.45-12.45C805.72,92.62,810.47,98.06,810.47,105.07ZM788.29,245.41V135.86h19.92V245.41Z" transform="translate(-164.1 -92.63)"/><path class="cls-1" d="M940.4,189.73c0,40.52-28.07,58.17-54.55,58.17-29.66,0-52.52-21.73-52.52-56.36,0-36.67,24-58.17,54.33-58.17C919.12,133.37,940.4,156.23,940.4,189.73Zm-86.92,1.13c0,24,13.81,42.1,33.27,42.1,19,0,33.27-17.88,33.27-42.55,0-18.56-9.28-42.1-32.82-42.1S853.48,170,853.48,190.86Z" transform="translate(-164.1 -92.63)"/></svg>