<svg id="Слой_1" data-name="Слой 1" xmlns="http://www.w3.org/2000/svg" viewBox="0 0 263.33 352.93"><defs><style>.cls-1{fill:#ffffff;}</style></defs><path class="cls-1" d="M152.23,148.25c14.31-14.11,28.58-28.26,43-42.28,2.33-2.27,2.57-4.82,2.56-7.71,0-12.12-.12-24.24,0-36.36.05-3.37-1-5.55-3.55-7.91-7.62-7.17-7.83-17.75-1-24.78a16.71,16.71,0,0,1,24.21,0c7.31,7.33,7.09,17.83-1.18,25.2-3,2.65-3.47,5.32-3.45,8.76.06,12.89-.14,25.79.1,38.68a15.62,15.62,0,0,1-5,12.3c-18.12,18-36,36.21-54.07,54.21a12.89,12.89,0,0,0-4.28,10.12c.21,19.34.16,38.68,0,58,0,3.84.85,6.75,3.72,9.58q24.25,23.88,48.09,48.19c3.27,3.34,5.21,3.76,8.48.07,5.13-5.78,10.72-11.17,16.32-16.5,2.63-2.51,2.76-4.23.06-6.87Q210,255,194,238.63c-2.41-2.47-5.23-2.9-8.27-3.53-9.66-2-15.84-10.83-14.1-19.83a17.12,17.12,0,0,1,20.23-13.5c9.66,2,15.07,10.74,12.78,21.13-.52,2.37-1.19,4.33.86,6.35,11.17,11,22.26,22.08,33.32,33.07,2.9-1.51,1.83-3.85,1.84-5.68.09-16-.14-32,.16-48,.09-4.86-1.57-8.17-4.93-11.45-9.62-9.35-18.71-19.23-28.5-28.38-4.42-4.14-3.87-6.46.19-10.32,11.14-10.62,21.78-21.76,32.79-32.5,3-2.92,4.47-5.93,4.26-10.17-.31-6.17-.15-12.37-.06-18.56.11-6.42.06-12-5.8-17.18-6.81-6-5-17.3,2-23.38a17.06,17.06,0,0,1,23.18.82c6.6,6.54,7.3,17.26.43,23.56-4.17,3.82-4.93,7.69-5,12.77-.17,11.28,3.41,23.72-1.41,33.5-4.65,9.47-14.63,16.36-22.39,24.26-11.9,12.1-11.94,12.05.22,24.28s12.14,12.2,24.2.41c2.76-2.71,5.43-5.51,8.3-8.11s4.53-5.34,4.13-9.93c-.87-10,7.25-18.12,16.89-18.18a17,17,0,0,1,17.1,16.45c.36,10.13-6.83,17.95-17.16,17.65-4.65-.14-7.29,2-10.74,4.43-19.24,13.64-26.68,31.54-23.37,55,1.6,11.37,3.23,24.43-.85,34.4S239.1,285,231.06,293.32c-.88.91-1.62,1.95-2.42,2.94-4.08,3.91-8.08,7.89-12.25,11.7-2.51,2.29-3.24,5-3.15,8.3.15,5.15,0,10.3,0,15.46,0,6.59-.32,12.5,5.73,18,6.44,5.82,4.52,17-2,22.85a17.1,17.1,0,0,1-23.75-.85c-6.19-6.39-7.18-17.19-.46-23,5.25-4.52,4.61-9.46,5.43-15,2.38-16-3.84-27.25-15.59-38.12-24.75-22.91-48.15-47.28-72-71.14-2.89-2.9-5.59-4.34-10.06-3.95-10.59.95-18.38-6-18.88-15.88a17.23,17.23,0,0,1,16.23-18.13c9.77-.5,17.48,6.67,17.82,17.18a10.83,10.83,0,0,0,3.54,8.05c4.49,4.46,8.72,9.17,13.06,13.78l2-1.08q0-26.46,0-52.93c0-3.34-2.54-4.91-4.48-6.86-14-14.06-27.89-28.23-42.15-42-4.22-4.09-6.18-8.25-5.86-14.16.41-7.5.89-14.63-6.15-20.9-5.89-5.23-3.84-18,1.65-22.58,6.78-5.7,18.49-5.05,24.62,1.35a17.43,17.43,0,0,1,0,23.83c-7.22,7.78-7,18.52.54,26.06L135.28,149C143.92,157.66,143.91,157.66,152.23,148.25Z" transform="translate(-72.1 -24)"/><path class="cls-1" d="M241.22,315.05a10.75,10.75,0,0,1,2.91-.71c18.66.78,24.31-17.53,37.11-25.35,2.18-1.33,1.16-4.33,1.17-6.57.06-16.48.23-33-.09-49.45-.11-5.57,1.08-9.89,5.52-13.5,3.38-2.75,6.09-6.3,9.34-9.21a11.81,11.81,0,0,0,4.33-10c-.24-10.42,7.44-17.73,17.4-17.43a17,17,0,0,1,16.52,17c0,9.72-8.08,17.3-18.12,17.06C309.55,216.73,297,229,297,237c-.07,17-.2,34,.09,51a13.84,13.84,0,0,1-4.85,11.45c-5.12,4.69-9.74,9.92-14.73,14.76-5.16,5-10.13,9.51-8.88,18.21.85,6-4.44,10-9,13.53-11.11,2.63-18.1.32-22.78-7.59C233,331.89,233,324.42,241.22,315.05Z" transform="translate(-72.1 -24)"/><path class="cls-1" d="M115.68,276.1c-1.57,3.77.82,6.33,3.55,8.95,5,4.81,9.87,9.78,14.76,14.72s8.92,9.49,17.34,9c8.7-.5,15,8.54,14.48,17.6a17.16,17.16,0,0,1-17.42,16.17c-9-.23-17.11-7.68-16.59-16.9.3-5.42-1.7-8.55-5.19-11.84-5.07-4.75-9.86-9.79-14.77-14.72-4.64-4.66-8.65-9.14-16.68-9.11-8.55,0-14.6-9.82-13.37-18.53S91.15,256,99.71,256.61C109.38,257.27,116.09,265.29,115.68,276.1Z" transform="translate(-72.1 -24)"/></svg>
